<svg xmlns="http://www.w3.org/2000/svg" version="1.1" xmlns:xlink="http://www.w3.org/1999/xlink" viewBox="0 0 200 200"><rect width="35" height="35" fill="url('#gradient')"></rect><defs><linearGradient id="gradient" gradientTransform="rotate(45 0.5 0.5)"><stop offset="0%" stop-color="#fdfdfd"></stop><stop offset="100%" stop-color="#cce1ff"></stop></linearGradient></defs><g><g fill="#c30000" transform="matrix(4.4277024551117625,0,0,4.4277024551117625,41.13279481074582,131.4803399134923)" stroke="#c30000" stroke-width="0.2"><path d="M9.98 0L9.15-2.66L4.45-2.66L3.63 0L-0.03 0L5.19-14.22L8.41-14.22L13.66 0L9.98 0ZM6.80-10.23L5.27-5.30L8.33-5.30L6.80-10.23ZM22.56 0L19.53-5.29L18.13-3.75L18.13 0L14.70 0L14.70-14.22L18.13-14.22L18.13-7.95L19.32-9.76L22.38-14.22L26.62-14.22L21.82-7.93L26.62 0L22.56 0Z"></path></g></g></svg>